<svg id="Layer_1" data-name="Layer 1" xmlns="http://www.w3.org/2000/svg" xmlns:xlink="http://www.w3.org/1999/xlink" viewBox="0 0 60 85" width="60" height="85"><defs><style>.cls-1{fill:url(#linear-gradient);}.cls-2{fill:#009cde;}.cls-3,.cls-4{fill:#fff;}.cls-4{stroke:#fff;stroke-miterlimit:10;stroke-width:0.2px;}</style><linearGradient id="linear-gradient" x1="30" y1="-31" x2="30" y2="53" gradientUnits="userSpaceOnUse"><stop offset="0" stop-color="#313376"/><stop offset="1" stop-color="#1b1c3e"/></linearGradient></defs><title>default</title><rect class="cls-1" width="60" height="85" rx="5.17" ry="5.17"/><path class="cls-2" d="M30,8A20,20,0,1,0,50,28,20,20,0,0,0,30,8ZM19.92,24.83v8.55s0,.07,0,.11a.41.41,0,0,1-.41.4H17.63a.41.41,0,0,1-.41-.41V24.58a.41.41,0,0,1,0-.11c0-.12,0-.21.08-.34v0a4.68,4.68,0,0,1,3.44-3.84h0c.28,0,.52-.14.81-.19h12.7c.3.05.64.15,1,.25a4.62,4.62,0,0,1,3.36,4.28A11.38,11.38,0,0,1,38.5,28a4.33,4.33,0,0,1-4.07,3.41c-1.27.05-2.6.05-3.92.05H26.38c-.31,0-.41-.05-.41-.41V29.36a.41.41,0,0,1,.41-.41h7a3.61,3.61,0,0,0,.71-.05c1.27-.2,1.83-.81,2-2.24a9.62,9.62,0,0,0-.05-2.09,2,2,0,0,0-2-1.88c-.76-.05-1.58-.05-2.34-.05H22.57a4.38,4.38,0,0,0-.81.05A2.1,2.1,0,0,0,19.92,24.83Zm22.86,6.65c-.05.15-.05.25-.1.41a4.68,4.68,0,0,1-3.46,3.87c-.31.05-.56.15-.87.2H25.73a9.9,9.9,0,0,1-1-.25,4.62,4.62,0,0,1-3.36-4.28A11.38,11.38,0,0,1,21.5,28a4.33,4.33,0,0,1,4.07-3.41c1.27-.05,2.6-.05,3.92-.05h4.13c.31,0,.41.05.41.41v1.71a.43.43,0,0,1-.43.43h-7a3.61,3.61,0,0,0-.71.05c-1.27.2-1.83.81-2,2.24a9.62,9.62,0,0,0,.05,2.09,2,2,0,0,0,2,1.88c.76.05,1.58.05,2.34.05h9.11a4.38,4.38,0,0,0,.81-.05,2.1,2.1,0,0,0,1.83-2.14V22.62a1.91,1.91,0,0,1,.05-.51h2.65Z"/><path class="cls-3" d="M22.57,22.64h9.11c.76,0,1.58,0,2.34.05a2,2,0,0,1,2,1.88,9.62,9.62,0,0,1,.05,2.09c-.15,1.43-.71,2-2,2.24a3.61,3.61,0,0,1-.71.05h-7a.41.41,0,0,0-.41.41v1.73c0,.36.1.41.41.41h4.13c1.32,0,2.65,0,3.92-.05A4.33,4.33,0,0,0,38.5,28a11.38,11.38,0,0,0,.15-3.46,4.62,4.62,0,0,0-3.36-4.28c-.34-.1-.69-.2-1-.25H21.61c-.28.05-.52.14-.81.19h0a4.68,4.68,0,0,0-3.44,3.84v0c0,.13,0,.22-.08.34a.41.41,0,0,0,0,.11v8.89a.41.41,0,0,0,.41.41h1.87a.41.41,0,0,0,.41-.4s0-.07,0-.11V24.83a2.1,2.1,0,0,1,1.83-2.14A4.38,4.38,0,0,1,22.57,22.64Z"/><path class="cls-3" d="M40.08,22.62v8.55a2.1,2.1,0,0,1-1.83,2.14,4.38,4.38,0,0,1-.81.05H28.32c-.76,0-1.58,0-2.34-.05a2,2,0,0,1-2-1.88,9.62,9.62,0,0,1-.05-2.09c.15-1.43.71-2,2-2.24a3.61,3.61,0,0,1,.71-.05h7a.43.43,0,0,0,.43-.43V24.91c0-.36-.1-.41-.41-.41H29.49c-1.32,0-2.65,0-3.92.05A4.33,4.33,0,0,0,21.5,28a11.38,11.38,0,0,0-.15,3.46,4.62,4.62,0,0,0,3.36,4.28,9.9,9.9,0,0,0,1,.25H38.35c.31-.05.56-.15.87-.2a4.68,4.68,0,0,0,3.46-3.87c.05-.15.05-.25.1-.41V22.11H40.13A1.91,1.91,0,0,0,40.08,22.62Z"/><path class="cls-3" d="M52.64,71.86H46.78v0h0a2.57,2.57,0,0,1-1.7-.54,1.18,1.18,0,0,1-.35-.91V67.92a.16.16,0,0,0-.16-.16H43.43a.16.16,0,0,0-.16.16v2.48A2.63,2.63,0,0,0,44,72.35a4.11,4.11,0,0,0,2.68,1h5.92a.16.16,0,0,0,.16-.16V72A.16.16,0,0,0,52.64,71.86Z"/><path class="cls-3" d="M25,73.14V72a.16.16,0,0,0-.16-.16h-5.9a2.58,2.58,0,0,1-1.66-.47,1.23,1.23,0,0,1-.37-1V67.92a.16.16,0,0,0-.16-.16H15.64a.16.16,0,0,0-.16.16v2.48a2.69,2.69,0,0,0,.83,2,3.79,3.79,0,0,0,2.5.85h6A.16.16,0,0,0,25,73.14Z"/><path class="cls-3" d="M14.2,67H13.08a.16.16,0,0,0-.16.16v5h0a1.64,1.64,0,0,1-.33,1.06,1.37,1.37,0,0,1-1.07.37H9.89a1.64,1.64,0,0,1-1.06-.33,1.37,1.37,0,0,1-.37-1.07l0-2.34a.16.16,0,0,0-.16-.16H7.16A.16.16,0,0,0,7,69.9v2.35a2.72,2.72,0,0,0,.83,2.13,3.14,3.14,0,0,0,2.12.72H11.5a2.72,2.72,0,0,0,2.13-.83,3.14,3.14,0,0,0,.72-2.12v-5A.16.16,0,0,0,14.2,67Z"/><path class="cls-3" d="M39.53,71v-1.1a.16.16,0,0,0-.16-.16H32.85a.16.16,0,0,0-.16.16c0,.38,0,1.38,0,2v.32a1.24,1.24,0,0,1-.37.92,2.84,2.84,0,0,1-1.71.54h-.27A2.44,2.44,0,0,1,29,73.32a1.37,1.37,0,0,1-.37-1.07V69.86a.16.16,0,0,0-.16-.16H27.38a.16.16,0,0,0-.16.16v2.39a2.72,2.72,0,0,0,.83,2.13,3.14,3.14,0,0,0,2.12.72h.72v0a3.86,3.86,0,0,0,2.46-.93,2.63,2.63,0,0,0,.78-1.94v-.9a.16.16,0,0,1,.16-.16l5.07,0A.16.16,0,0,0,39.53,71Z"/><path class="cls-3" d="M42,69.71H40.87a.16.16,0,0,0-.16.16v2.34h0a1.64,1.64,0,0,1-.33,1.06,1.37,1.37,0,0,1-1.07.37h-2a.16.16,0,0,0-.16.16v1.12a.16.16,0,0,0,.16.16h2a2.72,2.72,0,0,0,2.13-.83,3.14,3.14,0,0,0,.72-2.12V69.86A.16.16,0,0,0,42,69.71Z"/><rect class="cls-3" x="22.18" y="74.69" width="2.85" height="1.44" rx="0.16" ry="0.16"/><rect class="cls-3" x="50.02" y="74.69" width="2.76" height="1.4" rx="0.16" ry="0.16"/><rect class="cls-3" x="23.61" y="76.89" width="1.4" height="1.44" rx="0.16" ry="0.16"/><rect class="cls-3" x="51.42" y="76.93" width="1.36" height="1.4" rx="0.16" ry="0.16"/><path class="cls-4" d="M10.75,56.14l-.48-.48-.23.23-.23.24.47.47Z"/><path class="cls-4" d="M12.29,56.14l-.48-.47-.23.23-.23.24.47.48Z"/><path class="cls-4" d="M20.32,57.46,20,57.32l-.44-.18-.49-.2-.51-.19-.48-.17-.41-.12a1.41,1.41,0,0,0-.3,0,1,1,0,0,0-.42.08,1.18,1.18,0,0,0-.34.23,1.37,1.37,0,0,0-.25.34,1.85,1.85,0,0,0-.16.42l.45.12a1.12,1.12,0,0,1,.28-.53.6.6,0,0,1,.43-.19l.26,0L18,57l.48.16.53.19.55.21.54.21-.66.44q-.31.19-.61.35a5.25,5.25,0,0,1-.61.27,4.75,4.75,0,0,1-.68.19,6.72,6.72,0,0,1-.8.11q-.43,0-1.13,0h-.16a1.15,1.15,0,0,1-.29,0,.79.79,0,0,1-.27-.12.69.69,0,0,1-.2-.23.71.71,0,0,1-.08-.34v-1.3h-.47v1.3A.69.69,0,0,1,14,59a1.06,1.06,0,0,1-.79.24H8.76a.92.92,0,0,1-.28,0A.66.66,0,0,1,8.23,59a.74.74,0,0,1-.18-.26,1,1,0,0,1-.07-.4A2.06,2.06,0,0,1,8,58c0-.14.05-.27.08-.39l.08-.32,0-.13L7.78,57l0,.08,0,.18-.06.25c0,.09,0,.19-.06.29s0,.2,0,.29a2.12,2.12,0,0,0,0,.27,1.57,1.57,0,0,0,0,.35,1.39,1.39,0,0,0,.09.28,1.19,1.19,0,0,0,.13.21l.14.15a1.17,1.17,0,0,0,.38.24,1.29,1.29,0,0,0,.46.08H13.2a1.5,1.5,0,0,0,1.11-.39l0,0,0,0,.08.09.09.08a1.21,1.21,0,0,0,.4.22,1.54,1.54,0,0,0,.48.07h.17c.52,0,1,0,1.27,0a7.06,7.06,0,0,0,.94-.15,4.69,4.69,0,0,0,.77-.24,5.61,5.61,0,0,0,.67-.33c.22-.13.43-.27.65-.42l.7-.51-.06-.42Z"/><rect class="cls-4" x="16.84" y="54.52" width="0.7" height="0.71" transform="translate(-33.77 28.22) rotate(-45)"/><rect class="cls-4" x="21.67" y="54.24" width="0.48" height="5.43"/><path class="cls-4" d="M26.63,59a1,1,0,0,0,.07-.53,1.36,1.36,0,0,0-.22-.55L26,57.13l-.36-.54-.24-.37L25.22,56l-.1-.15L25,55.72l-.4.25.13.2,0,0,.06.1.14.21.23.35.35.53.5.75a.79.79,0,0,1,.13.28,1,1,0,0,1,0,.16.55.55,0,0,1,0,.2A.57.57,0,0,1,26,59a1.14,1.14,0,0,1-.42.15,2.33,2.33,0,0,1-.41,0h0a3.31,3.31,0,0,1-.49,0,3,3,0,0,1-.46-.1,1.73,1.73,0,0,1-.38-.16l-.2-.12-.24.4.2.12a2.32,2.32,0,0,0,.45.2,3.45,3.45,0,0,0,.56.13,3.74,3.74,0,0,0,.59,0,2.74,2.74,0,0,0,.52,0,1.58,1.58,0,0,0,.63-.24A1,1,0,0,0,26.63,59Z"/><path class="cls-4" d="M31.86,59.54a1.23,1.23,0,0,0,.38-.33,1.47,1.47,0,0,0,.23-.46,1.66,1.66,0,0,0,.08-.51v0c0-.13,0-.27,0-.41s0-.29-.06-.43-.05-.28-.08-.41l-.08-.36-.45.14.08.34c0,.12.05.25.08.38s0,.26.06.39a3.76,3.76,0,0,1,0,.38v0a1.17,1.17,0,0,1,0,.32,1,1,0,0,1-.14.31.75.75,0,0,1-.23.22.7.7,0,0,1-.32.09H29.71a1.15,1.15,0,0,1-.29,0,.79.79,0,0,1-.27-.12.68.68,0,0,1-.2-.23.72.72,0,0,1-.08-.35V57.1h-.47v2.44a1.91,1.91,0,0,1-.38,1.3,1.66,1.66,0,0,1-1.31.47H26.2v.46h.53a2.15,2.15,0,0,0,1.61-.56,2.3,2.3,0,0,0,.55-1.67v-.13a1.33,1.33,0,0,0,.38.19,1.52,1.52,0,0,0,.45.06h1.64A1,1,0,0,0,31.86,59.54Z"/><polygon class="cls-4" points="31.73 60.99 32.2 61.46 32.68 60.98 32.21 60.51 31.73 60.99"/><path class="cls-4" d="M30.92,60.77l-.24-.24L30.2,61l.48.47.48-.47Z"/><polygon class="cls-4" points="30.96 62 31.42 62.47 31.9 61.99 31.43 61.52 30.96 62"/><path class="cls-4" d="M39.1,57.48a3.8,3.8,0,0,0-.28-.41l-.35-.42-.32-.37-.31-.34-.23-.25-.09-.1-.34.31.3.33-.12.12-.13.14-.14.15L37,56.8l-.23.28a2.6,2.6,0,0,0-.23.34,2.1,2.1,0,0,0-.18.41,1.6,1.6,0,0,0-.07.49,1.14,1.14,0,0,0,.12.52,1.39,1.39,0,0,0,.33.43,1.58,1.58,0,0,0,.49.29,1.75,1.75,0,0,0,.61.1,1.79,1.79,0,0,0,.59-.09,1.52,1.52,0,0,0,.49-.28,1.32,1.32,0,0,0,.36-.45,1.2,1.2,0,0,0,.12-.54,1.34,1.34,0,0,0-.07-.42A2.13,2.13,0,0,0,39.1,57.48Zm-.3,1.17a.88.88,0,0,1-.23.28,1.16,1.16,0,0,1-.35.19,1.29,1.29,0,0,1-.43.07,1.3,1.3,0,0,1-.42-.07,1.15,1.15,0,0,1-.36-.2.86.86,0,0,1-.23-.28.71.71,0,0,1-.08-.33,1.16,1.16,0,0,1,.06-.37,1.83,1.83,0,0,1,.15-.33,2.24,2.24,0,0,1,.2-.29l.2-.24.11-.13.12-.13.12-.13.11-.12.33.37.34.41a3.18,3.18,0,0,1,.24.35,1.56,1.56,0,0,1,.15.31.9.9,0,0,1,0,.29A.73.73,0,0,1,38.81,58.65Z"/><polygon class="cls-4" points="45.57 52.77 42.68 54.01 42.65 54.4 45.72 53.07 45.57 52.77"/><path class="cls-4" d="M45.48,58.57v0a1.47,1.47,0,0,0-.09-.48,3,3,0,0,0-.65-1q-.54-.58-1-1l-.67-.6,3.19-1.4-.19-.43-3.54,1.56,0,.4.14.11.39.34.6.55q.34.33.75.76a2.64,2.64,0,0,1,.5.7,1.26,1.26,0,0,1,.12.46.53.53,0,0,1,0,.22.56.56,0,0,1-.3.28,1.63,1.63,0,0,1-.69.13H41.91a1.83,1.83,0,0,1-.49-.05.48.48,0,0,1-.27-.18A.75.75,0,0,1,41,58.6q0-.23,0-.58V54.24h-.47V58a4.86,4.86,0,0,0,0,.71,1.22,1.22,0,0,0,.19.52.88.88,0,0,0,.42.32,1.93,1.93,0,0,0,.63.1H44a2.27,2.27,0,0,0,.62-.07,1.62,1.62,0,0,0,.42-.18.93.93,0,0,0,.25-.22A1.11,1.11,0,0,0,45.4,59,1,1,0,0,0,45.48,58.57Z"/><path class="cls-4" d="M47.55,59.54a1.92,1.92,0,0,1-.38,1.3,1.66,1.66,0,0,1-1.31.47h-.53v.46h.53a2.14,2.14,0,0,0,1.61-.56A2.3,2.3,0,0,0,48,59.54V57.1h-.47Z"/><path class="cls-4" d="M52.25,58.43a1.36,1.36,0,0,0-.22-.55l-.5-.75-.36-.54-.24-.37L50.78,56l-.1-.15-.07-.11-.4.25.13.2,0,0,.07.1.13.21.23.35.35.53.5.75a.8.8,0,0,1,.13.28,1,1,0,0,1,0,.16.54.54,0,0,1,0,.2.56.56,0,0,1-.24.26,1.14,1.14,0,0,1-.42.15,2.33,2.33,0,0,1-.42,0h0a3.32,3.32,0,0,1-.49,0,3,3,0,0,1-.46-.1,1.74,1.74,0,0,1-.38-.16l-.2-.12-.24.4.2.12a2.29,2.29,0,0,0,.45.2,3.44,3.44,0,0,0,.55.13,3.76,3.76,0,0,0,.59,0,2.73,2.73,0,0,0,.52,0,1.59,1.59,0,0,0,.64-.24,1,1,0,0,0,.37-.45,1,1,0,0,0,.08-.38A.91.91,0,0,0,52.25,58.43Z"/></svg>